# xmcd CD database file
#
# Track frame offsets:
#	150
#	11331
#	23953
#	35306
#	49421
#	64156
#	77160
#	89144
#	103327
#	117081
#	131180
#	145304
#	160011
#	170103
#	182921
#	195667
#	209297
#	222819
#	235452
#	246698
#
# Disc length: 3484 seconds
#
# Revision: 0
# Processed by: cddbd v1.5.2PL0 Copyright (c) Steve Scherf et al.
# Submitted via: CDex 1.70beta2
#
DISCID=320d9a14
DTITLE=Django Reinhardt - 100 Swinging Greats! CD 3
DYEAR=2007
DGENRE=Blues
TTITLE0=Naguine
TTITLE1=Stockholm
TTITLE2=I'll See You In My Dreams
TTITLE3=Echoes of Spain
TTITLE4=Out Of Nowhere
TTITLE5=Begin the Beguine
TTITLE6=Rhythm Futur
TTITLE7=Blues
TTITLE8=Indecision
TTITLE9=Swing 41
TTITLE10=Pour Vous (Exactly Like You)
TTITLE11=Petits Mensonges (Little White Lies)
TTITLE12=Les Yeux Noirs (Dark Eyes)
TTITLE13=Sweet Sue, Just You
TTITLE14=All of Me
TTITLE15=Swing de Paris
TTITLE16=Crepuscule
TTITLE17=Swing 42
TTITLE18=Belleville
TTITLE19=Lentement Mademoiselle
EXTD=YEAR: 2007
EXTT0=
EXTT1=
EXTT2=
EXTT3=
EXTT4=
EXTT5=
EXTT6=
EXTT7=
EXTT8=
EXTT9=
EXTT10=
EXTT11=
EXTT12=
EXTT13=
EXTT14=
EXTT15=
EXTT16=
EXTT17=
EXTT18=
EXTT19=
PLAYORDER=
